<svg xmlns="http://www.w3.org/2000/svg" width="89" height="131" viewBox="0 0 89 131" version="1.1">
	<path d="M 41.500 7.784 C 39.663 10.278, 39.474 12.357, 39.182 33.259 L 38.865 56.019 35.932 57.535 L 33 59.051 33 55.956 C 33 53.318, 32.668 52.908, 30.750 53.180 C 28.905 53.442, 28.410 54.285, 28 57.855 C 27.448 62.662, 28.614 61.742, 11 71.267 C 6.325 73.795, 2.343 76.630, 2.151 77.567 C 1.765 79.446, 2.165 79.409, 12 76.665 C 25.573 72.878, 29.717 72, 34.026 72 L 38.631 72 39.810 85.250 C 40.458 92.537, 41.095 102.067, 41.226 106.427 L 41.464 114.353 35.302 118.927 C 26.772 125.257, 26.855 127.585, 35.500 124.471 C 41.069 122.465, 41.584 122.582, 43.079 126.191 L 44.401 129.383 45.703 126.191 C 47.206 122.509, 46.976 122.559, 53.409 124.511 C 62.293 127.206, 62.314 125.994, 53.497 119.379 L 46.994 114.500 47.575 99.500 C 47.894 91.250, 48.622 83.270, 49.192 81.767 C 49.762 80.263, 49.932 77.451, 49.569 75.517 L 48.909 72 54.045 72 C 58.223 72, 68.162 74.218, 84.250 78.741 C 85.384 79.060, 86 78.679, 86 77.659 C 86 76.037, 83.598 74.486, 69 66.685 C 60.609 62.201, 60.494 62.087, 60 57.830 C 59.432 52.934, 56 50.729, 56 55.260 C 56 58.486, 55.231 59.062, 52.555 57.843 C 50.353 56.840, 50.299 56.390, 49.703 34.335 C 49.186 15.182, 48.828 11.391, 47.289 8.755 C 44.914 4.689, 43.904 4.519, 41.500 7.784" stroke="none" fill="currentColor" fill-rule="evenodd"/>
</svg>