<svg xmlns="http://www.w3.org/2000/svg" width="100" height="112" viewBox="0 0 100 112" version="1.1">
	<path d="M 47.966 4.536 C 45.337 7.335, 44.149 13.242, 44.051 24 C 43.924 37.899, 42.243 45.862, 40.690 39.921 C 39.681 36.066, 35.687 37.830, 34.760 42.540 C 34.001 46.399, 33.549 46.802, 24.733 51.478 C 4.291 62.320, 6 61.073, 6 65.141 C 6 68.421, 6.240 68.763, 8.250 68.345 C 13.369 67.280, 19.158 66, 32.250 63.039 C 34.587 62.510, 37.927 61.807, 39.670 61.477 L 42.841 60.876 43.500 66.688 C 44.057 71.595, 45.631 80.161, 47.725 89.668 C 48.112 91.428, 46.673 93.031, 40.101 98.167 C 35.432 101.815, 32 105.242, 32 106.257 C 32 107.639, 32.376 107.807, 33.750 107.040 C 34.712 106.502, 38.844 104.684, 42.931 102.999 L 50.362 99.935 59.188 103.468 C 73.102 109.036, 73.812 107.603, 61.834 98.127 C 52.786 90.968, 53.311 92.888, 56.465 78.500 C 57.309 74.651, 58.007 69.701, 58.015 67.500 C 58.043 60.388, 58.105 60.375, 74 64 C 79.262 65.200, 88.028 67.106, 92.250 67.967 L 96 68.731 95.992 65.116 C 95.985 61.529, 95.895 61.453, 84.742 55.580 C 67.845 46.682, 67.522 46.476, 67.211 44.415 C 66.407 39.086, 65.866 38, 64.016 38 C 62.946 38, 61.568 38.939, 60.954 40.086 C 60.340 41.233, 59.595 41.929, 59.298 41.632 C 59.002 41.335, 58.396 34.209, 57.952 25.796 C 57.066 9.004, 56.385 6.138, 52.712 3.731 C 50.365 2.193, 50.130 2.233, 47.966 4.536" stroke="none" fill="currentColor" fill-rule="evenodd"/>
</svg>