<svg xmlns="http://www.w3.org/2000/svg" width="95" height="130" viewBox="0 0 95 130" version="1.1">
	<path d="M 45.020 7.960 C 43.180 11.568, 43 13.822, 43 33.300 L 43 54.679 40.453 55.839 C 37.004 57.411, 37 57.409, 37 54 C 37 48.669, 33.297 50.769, 32.824 56.368 C 32.468 60.588, 33.469 59.821, 16 69.267 C 11.325 71.795, 7.355 74.569, 7.177 75.431 C 6.774 77.385, 7.493 77.384, 14.701 75.420 C 29.803 71.305, 36.493 69.916, 39.850 70.196 L 43.500 70.500 43.769 92.122 L 44.038 113.744 38.566 118.122 C 30.979 124.193, 31.634 125.665, 40.500 122.471 C 45.799 120.562, 45.742 120.548, 46.500 124 C 47.361 127.918, 49.876 127.870, 50.666 123.920 C 51.111 121.697, 51.729 120.976, 52.891 121.326 C 53.776 121.594, 56.638 122.485, 59.250 123.308 C 65.824 125.379, 65.543 123.421, 58.548 118.408 L 53.096 114.500 53.048 92.250 L 53 70 57.290 70 C 61.440 70, 63.636 70.471, 80.232 74.925 C 89.511 77.415, 90.240 77.453, 89.823 75.424 C 89.645 74.557, 85.675 71.821, 81 69.345 C 63.901 60.287, 64 60.364, 64 56.065 C 64 53.476, 63.482 52.015, 62.418 51.607 C 60.089 50.713, 60 50.780, 60 53.441 C 60 56.534, 58.619 57.403, 56.152 55.863 C 54.375 54.753, 54.166 52.849, 53.487 31.604 C 52.920 13.820, 52.411 8.030, 51.261 6.275 C 49.102 2.981, 47.314 3.464, 45.020 7.960" stroke="none" fill="currentColor" fill-rule="evenodd"/>
</svg>